<?xml version="1.0" encoding="UTF-8"?>
<svg viewBox="229.854 149.362 494.221 126.758" xmlns="http://www.w3.org/2000/svg">
  <path d="M 95.002 275.82 L 95.002 266.952 L 97.536 266.952 L 97.536 299.256 C 97.536 305.378 95.847 310.208 92.468 313.745 C 89.09 317.282 84.656 319.05 79.166 319.05 C 76.158 319.05 73.229 318.364 70.379 316.991 C 67.528 315.62 65.311 313.824 63.728 311.607 L 63.728 307.966 C 65.099 310.498 67.253 312.61 70.186 314.299 C 73.112 315.988 76.105 316.833 79.166 316.833 C 83.812 316.833 87.612 315.264 90.568 312.127 C 93.523 308.983 95.002 304.693 95.002 299.256 L 95.002 293.951 C 93.577 296.855 91.334 299.177 88.272 300.919 C 85.21 302.66 82.043 303.531 78.771 303.531 C 73.598 303.531 69.164 301.695 65.469 298.023 C 61.774 294.359 59.927 289.966 59.927 284.846 C 59.927 279.726 61.774 275.33 65.469 271.658 C 69.164 267.993 73.598 266.16 78.771 266.16 C 82.202 266.16 85.411 267.016 88.396 268.728 C 91.374 270.447 93.577 272.811 95.002 275.82 Z M 62.461 284.846 C 62.461 289.333 64.086 293.196 67.336 296.439 C 70.578 299.689 74.431 301.315 78.895 301.315 C 83.352 301.315 87.164 299.689 90.33 296.439 C 93.497 293.196 95.081 289.333 95.081 284.846 C 95.081 280.359 93.497 276.491 90.33 273.241 C 87.164 269.998 83.352 268.377 78.895 268.377 C 74.431 268.377 70.578 269.998 67.336 273.241 C 64.086 276.491 62.461 280.359 62.461 284.846 Z M 127.86 271.782 C 125.538 269.46 122.977 268.298 120.18 268.298 C 117.383 268.298 114.917 269.354 112.783 271.465 C 110.641 273.577 109.57 276.031 109.57 278.828 L 109.57 302.582 L 107.037 302.582 L 107.037 266.952 L 109.57 266.952 L 109.57 272.257 C 110.52 270.462 111.999 268.984 114.004 267.823 C 116.01 266.662 118.254 266.081 120.734 266.081 C 123.214 266.081 125.59 266.926 127.86 268.615 L 127.86 271.782 Z M 135.619 267.031 L 138.153 267.031 L 138.153 302.582 L 135.619 302.582 L 135.619 267.031 Z M 136.886 258.322 C 135.355 258.322 134.59 257.609 134.59 256.184 C 134.59 254.759 135.355 254.047 136.886 254.047 C 138.416 254.047 139.182 254.759 139.182 256.184 C 139.182 257.609 138.416 258.322 136.886 258.322 Z M 150.346 300.364 L 170.456 300.364 L 170.456 302.582 L 145.912 302.582 L 166.181 269.169 L 148.049 269.169 L 148.049 266.952 L 170.694 266.952 L 150.346 300.364 Z M 179.087 300.364 L 199.197 300.364 L 199.197 302.582 L 174.653 302.582 L 194.921 269.169 L 176.791 269.169 L 176.791 266.952 L 199.435 266.952 L 179.087 300.364 Z M 219.704 301.077 L 219.704 303.294 C 215.955 303.294 212.762 302.039 210.123 299.528 C 207.484 297.025 206.164 293.819 206.164 289.914 L 206.164 243.2 L 208.698 243.2 L 208.698 289.914 C 208.698 293.133 209.768 295.798 211.91 297.91 C 214.044 300.022 216.642 301.077 219.704 301.077 Z M 254.699 287.696 L 254.699 266.952 L 257.233 266.952 L 257.233 301.473 C 257.233 306.17 255.596 310.156 252.324 313.428 C 249.051 316.701 245.04 318.338 240.29 318.338 C 234.589 318.338 230.076 316.146 226.75 311.765 L 226.909 307.806 C 228.386 310.34 230.328 312.362 232.734 313.87 C 235.132 315.37 237.65 316.12 240.29 316.12 C 244.195 316.12 247.574 314.71 250.424 311.89 C 253.274 309.062 254.699 305.669 254.699 301.711 L 254.699 295.693 C 252.113 300.865 247.6 303.452 241.16 303.452 C 236.779 303.452 233.031 301.906 229.918 298.815 C 226.803 295.73 225.246 292.025 225.246 287.696 L 225.246 266.952 L 227.78 266.952 L 227.78 287.696 C 227.78 291.339 229.114 294.505 231.783 297.197 C 234.445 299.889 237.598 301.235 241.239 301.235 C 244.882 301.235 248.037 299.889 250.706 297.197 C 253.368 294.505 254.699 291.339 254.699 287.696 Z" style="white-space: pre; stroke-width: 3px; fill: rgb(29, 48, 62); stroke: rgb(29, 48, 62);" transform="matrix(1, 0, 0, 1, 297.700043, -91.550873)"/>
  <path d="M 280.273 303.452 L 263.171 266.952 L 265.784 266.952 L 280.431 298.068 L 287.32 283.579 L 279.64 267.111 L 282.174 267.111 L 288.587 281.125 L 295.158 266.952 L 297.534 266.952 L 289.774 283.579 L 296.583 298.227 L 311.072 267.031 L 313.368 267.031 L 296.504 303.452 L 288.429 286.113 L 280.273 303.452 Z M 353.115 266.952 L 355.649 266.952 L 355.649 302.582 L 353.115 302.582 L 353.115 293.713 C 351.636 296.722 349.42 299.097 346.464 300.839 C 343.507 302.582 340.341 303.452 336.963 303.452 C 331.79 303.452 327.355 301.617 323.662 297.944 C 319.966 294.279 318.119 289.887 318.119 284.766 C 318.119 279.646 319.966 275.251 323.662 271.578 C 327.355 267.914 331.79 266.081 336.963 266.081 C 340.341 266.081 343.576 266.978 346.668 268.773 C 349.751 270.568 351.9 272.943 353.115 275.899 L 353.115 266.952 Z M 320.652 284.846 C 320.652 289.28 322.277 293.118 325.528 296.36 C 328.769 299.61 332.623 301.235 337.088 301.235 C 341.544 301.235 345.355 299.61 348.523 296.36 C 351.69 293.118 353.273 289.265 353.273 284.801 C 353.273 280.344 351.678 276.479 348.489 273.207 C 345.291 269.935 341.476 268.298 337.042 268.298 C 332.609 268.298 328.769 269.946 325.528 273.241 C 322.277 276.544 320.652 280.412 320.652 284.846 Z M 385.972 271.782 C 383.65 269.46 381.09 268.298 378.292 268.298 C 375.494 268.298 373.029 269.354 370.894 271.465 C 368.753 273.577 367.682 276.031 367.682 278.828 L 367.682 302.582 L 365.148 302.582 L 365.148 266.952 L 367.682 266.952 L 367.682 272.257 C 368.632 270.462 370.11 268.984 372.116 267.823 C 374.123 266.662 376.365 266.081 378.846 266.081 C 381.327 266.081 383.703 266.926 385.972 268.615 L 385.972 271.782 Z M 410.516 303.531 L 409.804 303.531 C 404.79 303.531 400.424 301.643 396.706 297.865 C 392.981 294.095 391.118 289.702 391.118 284.688 C 391.118 279.674 392.966 275.33 396.66 271.658 C 400.355 267.993 404.922 266.16 410.358 266.16 C 415.795 266.16 420.466 268.324 424.372 272.653 L 399.511 297.197 C 402.943 299.942 406.241 301.315 409.408 301.315 C 412.575 301.315 415.413 300.587 417.924 299.131 C 420.429 297.684 422.499 295.746 424.135 293.317 L 424.135 297.356 C 420.387 301.473 415.848 303.531 410.516 303.531 Z M 409.69 268.377 C 405.491 268.377 401.769 269.998 398.527 273.241 C 395.277 276.491 393.652 280.227 393.652 284.45 C 393.652 288.673 395.051 292.368 397.848 295.535 L 420.888 272.653 C 417.616 269.803 413.884 268.377 409.69 268.377 Z" style="white-space: pre; stroke-width: 3px; fill: rgb(226, 0, 92); stroke: rgb(226, 0, 92);" transform="matrix(1, 0, 0, 1, 297.700043, -91.550873)"/>
  <g transform="matrix(0.250302, 0, 0, -0.250302, -17.00498, 345.136932)" id="g-3" style="">
    <g transform="scale(0.1)" id="g-4">
      <path id="path-4" style="fill-opacity: 1; fill-rule: nonzero; stroke: none; fill: rgb(29, 48, 62);" d="M 12377.606 5686.295 C 12377.606 5686.295 12268.906 5743.425 12110.496 5654.295 C 11952.096 5565.165 11880.656 5512.365 11750.206 5484.415 C 11750.206 5484.415 11709.826 5282.525 11712.936 5121.015 C 11712.936 5121.015 11775.056 5130.335 11787.476 5105.485 C 11794.846 5090.745 11815.326 5002.785 11830.776 4933.655 C 11842.126 4882.885 11886.106 4846.015 11938.076 4843.635 L 12256.476 4829.055 C 12256.476 4829.055 12216.096 4925.335 12141.556 4953.295 C 12067.016 4981.245 12004.896 5015.405 12029.746 5089.955 C 12054.586 5164.495 12349.816 5612.115 12377.606 5686.295"/>
      <path id="path-5" style="fill-opacity: 1; fill-rule: nonzero; stroke: none; fill: rgb(29, 48, 62);" d="M 10155.446 5558.955 C 10009.466 5465.775 9910.076 5263.885 9906.976 5189.345 C 9903.866 5114.805 9922.506 4854.925 9922.506 4854.925 C 9922.506 4854.925 9990.836 4857.005 10018.786 4934.655 C 10046.736 5012.305 10080.556 5124.115 10195.656 5173.815 C 10310.746 5223.515 10484.686 5341.535 10484.686 5341.535 L 10307.646 5888.185 C 10307.646 5888.185 10301.426 5652.135 10155.446 5558.955"/>
      <path id="path-6" style="fill-opacity: 1; fill-rule: nonzero; stroke: none; fill: rgb(29, 48, 62);" d="M 13634.936 6204.625 C 13611.856 6204.625 13593.146 6223.335 13593.146 6246.415 C 13593.146 6269.485 13611.856 6288.195 13634.936 6288.195 C 13658.006 6288.195 13676.716 6269.485 13676.716 6246.415 C 13676.716 6223.335 13658.006 6204.625 13634.936 6204.625 Z M 13911.566 5895.205 L 13741.126 6161.515 L 13742.936 6257.265 C 13743.776 6301.785 13729.096 6345.215 13701.426 6380.095 L 13381.726 6783.075 L 13342.056 6917.785 C 13329.846 6959.275 13271.366 6960.085 13258.006 6918.945 L 13221.726 6807.215 C 13111.606 6778.715 12873.516 6791.175 12800.026 6830.055 C 12719.266 6872.775 12644.726 6984.595 12452.156 6965.955 C 12259.586 6947.315 12129.136 6829.295 11852.706 6869.675 C 11576.276 6910.055 11340.216 7077.775 10945.766 6931.785 C 10551.306 6785.805 10309.036 6593.235 10299.716 6363.405 C 10290.406 6133.555 10719.026 4853.905 10719.026 4853.905 L 10802.886 4813.525 L 11309.156 4813.525 C 11309.156 4813.525 11309.156 4884.955 11243.936 4903.595 C 11178.706 4922.235 11032.726 4993.675 11035.836 5043.365 C 11038.936 5093.065 11116.586 5593.125 11116.586 5593.125 C 11116.586 5593.125 11622.866 5422.295 12067.016 5692.505 C 12511.166 5962.735 12567.076 5509.255 12567.076 5509.255 L 12604.346 5161.395 C 12604.346 5161.395 12678.886 5201.765 12719.266 5173.815 C 12750.646 5152.095 12988.336 4946.555 13092.746 4856.005 C 13124.376 4828.575 13164.786 4813.525 13206.646 4813.525 L 13616.886 4813.525 C 13616.886 4813.525 13595.146 4888.065 13477.126 4912.915 C 13359.096 4937.765 13250.386 5102.375 13250.386 5102.375 C 13250.386 5102.375 13005.016 5543.425 13017.436 5894.395 C 13017.436 5894.395 13430.536 5937.885 13470.906 5711.145 C 13470.906 5711.145 13529.926 5822.955 13564.086 5822.955 C 13579.996 5822.955 13616.786 5808.815 13651.556 5793.705 C 13702.476 5771.565 13760.306 5771.675 13811.106 5794.085 L 13891.806 5829.695 C 13917.086 5840.845 13926.466 5871.925 13911.566 5895.205"/>
    </g>
  </g>
  <path d="M -269.038 964.952 C -268.791 965.119 -268.668 965.325 -268.668 965.572 C -268.668 965.652 -268.701 965.759 -268.768 965.892 C -268.828 966.005 -268.918 966.095 -269.038 966.162 C -269.151 966.229 -269.275 966.262 -269.408 966.262 C -269.568 966.262 -269.705 966.229 -269.818 966.162 C -270.278 965.895 -270.648 965.469 -270.928 964.882 C -271.208 964.289 -271.348 963.345 -271.348 962.052 C -271.348 960.905 -271.668 960.099 -272.308 959.632 C -272.948 959.159 -273.711 958.922 -274.598 958.922 L -280.058 958.922 L -280.058 965.542 C -280.058 965.755 -280.121 965.932 -280.248 966.072 C -280.381 966.212 -280.555 966.282 -280.768 966.282 C -281.001 966.282 -281.198 966.212 -281.358 966.072 C -281.525 965.932 -281.608 965.755 -281.608 965.542 L -281.608 949.802 C -281.608 949.589 -281.538 949.412 -281.398 949.272 C -281.258 949.132 -281.081 949.062 -280.868 949.062 L -274.228 949.062 C -273.295 949.062 -272.458 949.262 -271.718 949.662 C -270.978 950.069 -270.398 950.622 -269.978 951.322 C -269.565 952.029 -269.358 952.825 -269.358 953.712 C -269.358 954.759 -269.631 955.682 -270.178 956.482 C -270.725 957.275 -271.441 957.819 -272.328 958.112 C -271.608 958.392 -271.018 958.865 -270.558 959.532 C -270.098 960.192 -269.861 960.999 -269.848 961.952 C -269.828 962.972 -269.758 963.685 -269.638 964.092 C -269.518 964.505 -269.318 964.792 -269.038 964.952 Z M -280.058 957.572 L -274.148 957.572 C -273.575 957.525 -273.041 957.339 -272.548 957.012 C -272.061 956.679 -271.668 956.235 -271.368 955.682 C -271.075 955.122 -270.928 954.482 -270.928 953.762 C -270.928 952.829 -271.245 952.052 -271.878 951.432 C -272.511 950.819 -273.335 950.512 -274.348 950.512 L -280.058 950.512 L -280.058 957.572 ZM -255.793 959.272 C -255.793 959.465 -255.866 959.632 -256.013 959.772 C -256.159 959.912 -256.333 959.982 -256.533 959.982 L -265.833 959.982 C -265.833 960.969 -265.629 961.852 -265.223 962.632 C -264.823 963.412 -264.249 964.025 -263.503 964.472 C -262.756 964.925 -261.876 965.152 -260.863 965.152 C -260.076 965.152 -259.369 964.989 -258.743 964.662 C -258.123 964.329 -257.623 963.909 -257.243 963.402 C -257.063 963.255 -256.889 963.182 -256.723 963.182 C -256.563 963.182 -256.416 963.249 -256.283 963.382 C -256.149 963.509 -256.083 963.655 -256.083 963.822 C -256.083 964.002 -256.166 964.175 -256.333 964.342 C -256.859 964.982 -257.519 965.505 -258.313 965.912 C -259.106 966.325 -259.946 966.532 -260.833 966.532 C -262.099 966.532 -263.216 966.259 -264.183 965.712 C -265.149 965.172 -265.903 964.415 -266.443 963.442 C -266.983 962.469 -267.253 961.342 -267.253 960.062 C -267.253 958.715 -266.986 957.539 -266.453 956.532 C -265.919 955.519 -265.213 954.745 -264.333 954.212 C -263.446 953.679 -262.503 953.412 -261.503 953.412 C -260.516 953.412 -259.593 953.642 -258.733 954.102 C -257.873 954.562 -257.173 955.235 -256.633 956.122 C -256.086 957.009 -255.806 958.059 -255.793 959.272 Z M -261.503 954.842 C -262.449 954.842 -263.329 955.169 -264.143 955.822 C -264.956 956.482 -265.476 957.425 -265.703 958.652 L -257.313 958.652 L -257.313 958.462 C -257.399 957.722 -257.646 957.079 -258.053 956.532 C -258.466 955.979 -258.979 955.559 -259.593 955.272 C -260.206 954.985 -260.843 954.842 -261.503 954.842 ZM -254.258 964.292 C -254.392 964.079 -254.458 963.899 -254.458 963.752 C -254.458 963.539 -254.352 963.372 -254.138 963.252 C -254.038 963.159 -253.905 963.112 -253.738 963.112 C -253.545 963.112 -253.365 963.192 -253.198 963.352 C -252.232 964.632 -250.945 965.272 -249.338 965.272 C -248.552 965.272 -247.868 965.089 -247.288 964.722 C -246.702 964.349 -246.408 963.812 -246.408 963.112 C -246.408 962.419 -246.678 961.902 -247.218 961.562 C -247.765 961.215 -248.522 960.919 -249.488 960.672 C -250.848 960.325 -251.915 959.879 -252.688 959.332 C -253.455 958.785 -253.838 957.979 -253.838 956.912 C -253.838 956.239 -253.652 955.635 -253.278 955.102 C -252.898 954.569 -252.385 954.155 -251.738 953.862 C -251.092 953.562 -250.358 953.412 -249.538 953.412 C -248.832 953.412 -248.122 953.549 -247.408 953.822 C -246.695 954.095 -246.085 954.525 -245.578 955.112 C -245.425 955.225 -245.348 955.389 -245.348 955.602 C -245.348 955.802 -245.432 955.975 -245.598 956.122 C -245.712 956.222 -245.858 956.272 -246.038 956.272 C -246.205 956.272 -246.355 956.205 -246.488 956.072 C -246.882 955.632 -247.348 955.295 -247.888 955.062 C -248.428 954.835 -249.012 954.722 -249.638 954.722 C -250.405 954.722 -251.065 954.902 -251.618 955.262 C -252.165 955.622 -252.438 956.162 -252.438 956.882 C -252.405 957.542 -252.105 958.042 -251.538 958.382 C -250.972 958.729 -250.138 959.042 -249.038 959.322 C -248.192 959.535 -247.488 959.772 -246.928 960.032 C -246.368 960.299 -245.912 960.669 -245.558 961.142 C -245.205 961.615 -245.028 962.245 -245.028 963.032 C -245.028 964.099 -245.455 964.949 -246.308 965.582 C -247.162 966.215 -248.222 966.532 -249.488 966.532 C -251.488 966.532 -253.078 965.785 -254.258 964.292 ZM -241.384 965.542 C -241.384 965.755 -241.454 965.932 -241.594 966.072 C -241.734 966.212 -241.91 966.282 -242.124 966.282 C -242.337 966.282 -242.514 966.212 -242.654 966.072 C -242.794 965.932 -242.864 965.755 -242.864 965.542 L -242.864 954.232 C -242.864 954.019 -242.794 953.842 -242.654 953.702 C -242.514 953.562 -242.337 953.492 -242.124 953.492 C -241.91 953.492 -241.734 953.562 -241.594 953.702 C -241.454 953.842 -241.384 954.019 -241.384 954.232 L -241.384 965.542 Z M -242.124 951.842 C -242.45 951.842 -242.704 951.765 -242.884 951.612 C -243.064 951.452 -243.154 951.225 -243.154 950.932 L -243.154 950.682 C -243.154 950.389 -243.06 950.165 -242.874 950.012 C -242.687 949.852 -242.427 949.772 -242.094 949.772 C -241.44 949.772 -241.114 950.075 -241.114 950.682 L -241.114 950.932 C -241.114 951.225 -241.2 951.452 -241.374 951.612 C -241.547 951.765 -241.797 951.842 -242.124 951.842 ZM -236.72 965.542 C -236.72 965.755 -236.79 965.932 -236.93 966.072 C -237.07 966.212 -237.247 966.282 -237.46 966.282 C -237.674 966.282 -237.85 966.212 -237.99 966.072 C -238.13 965.932 -238.2 965.755 -238.2 965.542 L -238.2 948.812 C -238.2 948.599 -238.13 948.425 -237.99 948.292 C -237.85 948.152 -237.674 948.082 -237.46 948.082 C -237.247 948.082 -237.07 948.152 -236.93 948.292 C -236.79 948.425 -236.72 948.599 -236.72 948.812 L -236.72 965.542 ZM -232.064 965.542 C -232.064 965.755 -232.134 965.932 -232.274 966.072 C -232.414 966.212 -232.59 966.282 -232.804 966.282 C -233.017 966.282 -233.194 966.212 -233.334 966.072 C -233.474 965.932 -233.544 965.755 -233.544 965.542 L -233.544 954.232 C -233.544 954.019 -233.474 953.842 -233.334 953.702 C -233.194 953.562 -233.017 953.492 -232.804 953.492 C -232.59 953.492 -232.414 953.562 -232.274 953.702 C -232.134 953.842 -232.064 954.019 -232.064 954.232 L -232.064 965.542 Z M -232.804 951.842 C -233.13 951.842 -233.384 951.765 -233.564 951.612 C -233.744 951.452 -233.834 951.225 -233.834 950.932 L -233.834 950.682 C -233.834 950.389 -233.74 950.165 -233.554 950.012 C -233.367 949.852 -233.107 949.772 -232.774 949.772 C -232.12 949.772 -231.794 950.075 -231.794 950.682 L -231.794 950.932 C -231.794 951.225 -231.88 951.452 -232.054 951.612 C -232.227 951.765 -232.477 951.842 -232.804 951.842 ZM -218.401 959.272 C -218.401 959.465 -218.474 959.632 -218.621 959.772 C -218.767 959.912 -218.941 959.982 -219.141 959.982 L -228.441 959.982 C -228.441 960.969 -228.237 961.852 -227.831 962.632 C -227.431 963.412 -226.857 964.025 -226.111 964.472 C -225.364 964.925 -224.484 965.152 -223.471 965.152 C -222.684 965.152 -221.977 964.989 -221.351 964.662 C -220.731 964.329 -220.231 963.909 -219.851 963.402 C -219.671 963.255 -219.497 963.182 -219.331 963.182 C -219.171 963.182 -219.024 963.249 -218.891 963.382 C -218.757 963.509 -218.691 963.655 -218.691 963.822 C -218.691 964.002 -218.774 964.175 -218.941 964.342 C -219.467 964.982 -220.127 965.505 -220.921 965.912 C -221.714 966.325 -222.554 966.532 -223.441 966.532 C -224.707 966.532 -225.824 966.259 -226.791 965.712 C -227.757 965.172 -228.511 964.415 -229.051 963.442 C -229.591 962.469 -229.861 961.342 -229.861 960.062 C -229.861 958.715 -229.594 957.539 -229.061 956.532 C -228.527 955.519 -227.821 954.745 -226.941 954.212 C -226.054 953.679 -225.111 953.412 -224.111 953.412 C -223.124 953.412 -222.201 953.642 -221.341 954.102 C -220.481 954.562 -219.781 955.235 -219.241 956.122 C -218.694 957.009 -218.414 958.059 -218.401 959.272 Z M -224.111 954.842 C -225.057 954.842 -225.937 955.169 -226.751 955.822 C -227.564 956.482 -228.084 957.425 -228.311 958.652 L -219.921 958.652 L -219.921 958.462 C -220.007 957.722 -220.254 957.079 -220.661 956.532 C -221.074 955.979 -221.587 955.559 -222.201 955.272 C -222.814 954.985 -223.451 954.842 -224.111 954.842 ZM -210.226 953.412 C -208.7 953.412 -207.58 953.859 -206.866 954.752 C -206.153 955.652 -205.796 956.839 -205.796 958.312 L -205.796 965.542 C -205.796 965.755 -205.87 965.932 -206.016 966.072 C -206.163 966.212 -206.336 966.282 -206.536 966.282 C -206.75 966.282 -206.926 966.212 -207.066 966.072 C -207.206 965.932 -207.276 965.755 -207.276 965.542 L -207.276 958.382 C -207.276 957.315 -207.543 956.452 -208.076 955.792 C -208.61 955.125 -209.433 954.792 -210.546 954.792 C -211.253 954.792 -211.92 954.955 -212.546 955.282 C -213.18 955.615 -213.693 956.055 -214.086 956.602 C -214.48 957.149 -214.676 957.742 -214.676 958.382 L -214.676 965.542 C -214.676 965.755 -214.746 965.932 -214.886 966.072 C -215.026 966.212 -215.203 966.282 -215.416 966.282 C -215.63 966.282 -215.806 966.212 -215.946 966.072 C -216.086 965.932 -216.156 965.755 -216.156 965.542 L -216.156 954.522 C -216.156 954.309 -216.086 954.132 -215.946 953.992 C -215.806 953.852 -215.63 953.782 -215.416 953.782 C -215.203 953.782 -215.026 953.852 -214.886 953.992 C -214.746 954.132 -214.676 954.309 -214.676 954.522 L -214.676 955.872 C -214.236 955.172 -213.6 954.589 -212.766 954.122 C -211.94 953.649 -211.093 953.412 -210.226 953.412 ZM -197.821 955.142 L -200.281 955.142 L -200.281 963.382 C -200.281 964.002 -200.164 964.422 -199.931 964.642 C -199.704 964.869 -199.401 964.982 -199.021 964.982 C -198.921 964.982 -198.797 964.959 -198.651 964.912 C -198.504 964.872 -198.391 964.852 -198.311 964.852 C -198.164 964.852 -198.037 964.915 -197.931 965.042 C -197.824 965.162 -197.771 965.305 -197.771 965.472 C -197.771 965.699 -197.901 965.892 -198.161 966.052 C -198.421 966.205 -198.734 966.282 -199.101 966.282 C -199.541 966.282 -199.934 966.242 -200.281 966.162 C -200.621 966.075 -200.951 965.829 -201.271 965.422 C -201.591 965.009 -201.751 964.352 -201.751 963.452 L -201.751 955.142 L -203.551 955.142 C -203.744 955.142 -203.911 955.075 -204.051 954.942 C -204.191 954.809 -204.261 954.645 -204.261 954.452 C -204.261 954.252 -204.191 954.089 -204.051 953.962 C -203.911 953.829 -203.744 953.762 -203.551 953.762 L -201.751 953.762 L -201.751 951.032 C -201.751 950.819 -201.681 950.642 -201.541 950.502 C -201.401 950.362 -201.224 950.292 -201.011 950.292 C -200.797 950.292 -200.624 950.362 -200.491 950.502 C -200.351 950.642 -200.281 950.819 -200.281 951.032 L -200.281 953.762 L -197.821 953.762 C -197.641 953.762 -197.481 953.835 -197.341 953.982 C -197.201 954.129 -197.131 954.292 -197.131 954.472 C -197.131 954.672 -197.194 954.832 -197.321 954.952 C -197.454 955.079 -197.621 955.142 -197.821 955.142 ZM -184.269 966.532 C -185.449 966.532 -186.492 966.335 -187.399 965.942 C -188.312 965.549 -189.196 964.932 -190.049 964.092 C -190.242 963.925 -190.339 963.729 -190.339 963.502 C -190.339 963.302 -190.262 963.122 -190.109 962.962 C -189.956 962.795 -189.779 962.712 -189.579 962.712 C -189.386 962.712 -189.206 962.795 -189.039 962.962 C -187.759 964.369 -186.159 965.072 -184.239 965.072 C -183.059 965.072 -182.079 964.795 -181.299 964.242 C -180.526 963.682 -180.139 962.952 -180.139 962.052 C -180.139 961.345 -180.329 960.759 -180.709 960.292 C -181.096 959.825 -181.602 959.445 -182.229 959.152 C -182.849 958.852 -183.642 958.549 -184.609 958.242 C -185.662 957.929 -186.546 957.582 -187.259 957.202 C -187.972 956.829 -188.549 956.325 -188.989 955.692 C -189.436 955.059 -189.659 954.259 -189.659 953.292 C -189.659 952.425 -189.422 951.655 -188.949 950.982 C -188.482 950.309 -187.829 949.779 -186.989 949.392 C -186.142 949.005 -185.169 948.812 -184.069 948.812 C -183.069 948.812 -182.129 948.982 -181.249 949.322 C -180.376 949.655 -179.676 950.135 -179.149 950.762 C -178.902 951.042 -178.779 951.279 -178.779 951.472 C -178.779 951.652 -178.862 951.822 -179.029 951.982 C -179.189 952.135 -179.369 952.212 -179.569 952.212 C -179.736 952.212 -179.876 952.155 -179.989 952.042 C -180.429 951.515 -181.019 951.089 -181.759 950.762 C -182.499 950.435 -183.269 950.272 -184.069 950.272 C -185.269 950.272 -186.246 950.535 -186.999 951.062 C -187.752 951.595 -188.129 952.322 -188.129 953.242 C -188.129 954.195 -187.769 954.925 -187.049 955.432 C -186.329 955.939 -185.296 956.405 -183.949 956.832 C -182.782 957.179 -181.829 957.532 -181.089 957.892 C -180.356 958.252 -179.756 958.765 -179.289 959.432 C -178.822 960.099 -178.589 960.972 -178.589 962.052 C -178.589 962.885 -178.829 963.642 -179.309 964.322 C -179.796 965.009 -180.469 965.549 -181.329 965.942 C -182.189 966.335 -183.169 966.532 -184.269 966.532 ZM -164.657 959.982 C -164.657 961.215 -164.927 962.332 -165.467 963.332 C -166.007 964.332 -166.754 965.115 -167.707 965.682 C -168.654 966.249 -169.71 966.532 -170.877 966.532 C -172.044 966.532 -173.1 966.249 -174.047 965.682 C -175 965.115 -175.747 964.332 -176.287 963.332 C -176.827 962.332 -177.097 961.215 -177.097 959.982 C -177.097 958.755 -176.827 957.642 -176.287 956.642 C -175.747 955.642 -175 954.855 -174.047 954.282 C -173.1 953.702 -172.044 953.412 -170.877 953.412 C -169.71 953.412 -168.654 953.702 -167.707 954.282 C -166.754 954.855 -166.007 955.642 -165.467 956.642 C -164.927 957.642 -164.657 958.755 -164.657 959.982 Z M -166.127 959.982 C -166.127 959.002 -166.334 958.119 -166.747 957.332 C -167.154 956.539 -167.724 955.919 -168.457 955.472 C -169.184 955.019 -169.99 954.792 -170.877 954.792 C -171.764 954.792 -172.567 955.019 -173.287 955.472 C -174.007 955.919 -174.577 956.539 -174.997 957.332 C -175.417 958.119 -175.627 959.002 -175.627 959.982 C -175.627 960.949 -175.417 961.825 -174.997 962.612 C -174.577 963.405 -174.007 964.025 -173.287 964.472 C -172.567 964.925 -171.764 965.152 -170.877 965.152 C -169.99 965.152 -169.184 964.929 -168.457 964.482 C -167.724 964.042 -167.154 963.429 -166.747 962.642 C -166.334 961.855 -166.127 960.969 -166.127 959.982 ZM -158.053 949.482 C -158.573 949.482 -158.98 949.652 -159.273 949.992 C -159.56 950.339 -159.703 950.815 -159.703 951.422 L -159.703 953.962 L -156.943 953.962 C -156.763 953.962 -156.603 954.025 -156.463 954.152 C -156.323 954.285 -156.253 954.449 -156.253 954.642 C -156.253 954.842 -156.323 955.009 -156.463 955.142 C -156.603 955.269 -156.763 955.332 -156.943 955.332 L -159.703 955.332 L -159.703 965.542 C -159.703 965.755 -159.773 965.932 -159.913 966.072 C -160.047 966.212 -160.22 966.282 -160.433 966.282 C -160.647 966.282 -160.823 966.212 -160.963 966.072 C -161.103 965.932 -161.173 965.755 -161.173 965.542 L -161.173 955.332 L -162.973 955.332 C -163.167 955.332 -163.33 955.262 -163.463 955.122 C -163.597 954.982 -163.663 954.822 -163.663 954.642 C -163.663 954.429 -163.597 954.262 -163.463 954.142 C -163.33 954.022 -163.167 953.962 -162.973 953.962 L -161.173 953.962 L -161.173 951.422 C -161.173 950.389 -160.873 949.589 -160.273 949.022 C -159.68 948.455 -158.883 948.172 -157.883 948.172 C -157.423 948.172 -156.997 948.242 -156.603 948.382 C -156.21 948.522 -156.013 948.749 -156.013 949.062 C -156.013 949.262 -156.077 949.425 -156.203 949.552 C -156.337 949.685 -156.487 949.752 -156.653 949.752 C -156.8 949.752 -156.98 949.712 -157.193 949.632 C -157.553 949.532 -157.84 949.482 -158.053 949.482 ZM -149.558 955.142 L -152.018 955.142 L -152.018 963.382 C -152.018 964.002 -151.901 964.422 -151.668 964.642 C -151.441 964.869 -151.138 964.982 -150.758 964.982 C -150.658 964.982 -150.535 964.959 -150.388 964.912 C -150.241 964.872 -150.128 964.852 -150.048 964.852 C -149.901 964.852 -149.775 964.915 -149.668 965.042 C -149.561 965.162 -149.508 965.305 -149.508 965.472 C -149.508 965.699 -149.638 965.892 -149.898 966.052 C -150.158 966.205 -150.471 966.282 -150.838 966.282 C -151.278 966.282 -151.671 966.242 -152.018 966.162 C -152.358 966.075 -152.688 965.829 -153.008 965.422 C -153.328 965.009 -153.488 964.352 -153.488 963.452 L -153.488 955.142 L -155.288 955.142 C -155.481 955.142 -155.648 955.075 -155.788 954.942 C -155.928 954.809 -155.998 954.645 -155.998 954.452 C -155.998 954.252 -155.928 954.089 -155.788 953.962 C -155.648 953.829 -155.481 953.762 -155.288 953.762 L -153.488 953.762 L -153.488 951.032 C -153.488 950.819 -153.418 950.642 -153.278 950.502 C -153.138 950.362 -152.961 950.292 -152.748 950.292 C -152.535 950.292 -152.361 950.362 -152.228 950.502 C -152.088 950.642 -152.018 950.819 -152.018 951.032 L -152.018 953.762 L -149.558 953.762 C -149.378 953.762 -149.218 953.835 -149.078 953.982 C -148.938 954.129 -148.868 954.292 -148.868 954.472 C -148.868 954.672 -148.931 954.832 -149.058 954.952 C -149.191 955.079 -149.358 955.142 -149.558 955.142 ZM -131.017 953.442 C -130.803 953.442 -130.63 953.509 -130.497 953.642 C -130.357 953.769 -130.287 953.949 -130.287 954.182 C -130.287 954.195 -130.31 954.302 -130.357 954.502 L -134.147 965.812 C -134.227 965.959 -134.333 966.079 -134.467 966.172 C -134.6 966.259 -134.74 966.295 -134.887 966.282 C -135.033 966.282 -135.163 966.242 -135.277 966.162 C -135.39 966.075 -135.48 965.959 -135.547 965.812 L -138.767 958.242 L -141.647 965.812 C -141.713 965.945 -141.807 966.055 -141.927 966.142 C -142.053 966.235 -142.183 966.282 -142.317 966.282 C -142.477 966.295 -142.627 966.259 -142.767 966.172 C -142.907 966.079 -143 965.959 -143.047 965.812 L -146.937 954.502 C -146.983 954.402 -147.007 954.295 -147.007 954.182 C -147.007 953.969 -146.933 953.792 -146.787 953.652 C -146.64 953.512 -146.46 953.442 -146.247 953.442 C -146.1 953.442 -145.967 953.485 -145.847 953.572 C -145.72 953.665 -145.633 953.785 -145.587 953.932 L -142.317 963.752 L -139.387 956.392 C -139.273 956.079 -139.043 955.922 -138.697 955.922 C -138.37 955.922 -138.14 956.079 -138.007 956.392 L -134.937 963.702 L -131.707 953.932 C -131.613 953.605 -131.383 953.442 -131.017 953.442 ZM -117.953 953.712 C -117.74 953.712 -117.563 953.785 -117.423 953.932 C -117.283 954.079 -117.213 954.259 -117.213 954.472 L -117.213 965.542 C -117.213 965.755 -117.283 965.932 -117.423 966.072 C -117.563 966.212 -117.74 966.282 -117.953 966.282 C -118.167 966.282 -118.343 966.212 -118.483 966.072 C -118.623 965.932 -118.693 965.755 -118.693 965.542 L -118.693 963.892 C -119.1 964.632 -119.713 965.255 -120.533 965.762 C -121.353 966.275 -122.247 966.532 -123.213 966.532 C -124.313 966.532 -125.303 966.245 -126.183 965.672 C -127.057 965.092 -127.743 964.302 -128.243 963.302 C -128.743 962.302 -128.993 961.179 -128.993 959.932 C -128.993 958.685 -128.74 957.569 -128.233 956.582 C -127.727 955.589 -127.033 954.812 -126.153 954.252 C -125.28 953.692 -124.31 953.412 -123.243 953.412 C -122.257 953.412 -121.353 953.652 -120.533 954.132 C -119.713 954.605 -119.1 955.229 -118.693 956.002 L -118.693 954.472 C -118.693 954.259 -118.623 954.079 -118.483 953.932 C -118.343 953.785 -118.167 953.712 -117.953 953.712 Z M -123.063 965.152 C -122.217 965.152 -121.45 964.925 -120.763 964.472 C -120.083 964.025 -119.553 963.402 -119.173 962.602 C -118.787 961.809 -118.593 960.919 -118.593 959.932 C -118.593 958.985 -118.787 958.119 -119.173 957.332 C -119.553 956.539 -120.083 955.919 -120.763 955.472 C -121.45 955.019 -122.217 954.792 -123.063 954.792 C -123.917 954.792 -124.683 955.015 -125.363 955.462 C -126.05 955.902 -126.583 956.512 -126.963 957.292 C -127.35 958.072 -127.543 958.952 -127.543 959.932 C -127.543 960.919 -127.357 961.809 -126.983 962.602 C -126.603 963.402 -126.073 964.025 -125.393 964.472 C -124.713 964.925 -123.937 965.152 -123.063 965.152 ZM -108.278 953.412 C -107.951 953.412 -107.654 953.479 -107.388 953.612 C -107.128 953.745 -106.998 953.942 -106.998 954.202 C -106.998 954.435 -107.061 954.619 -107.188 954.752 C -107.321 954.892 -107.478 954.962 -107.658 954.962 C -107.744 954.962 -107.904 954.922 -108.138 954.842 C -108.378 954.762 -108.604 954.722 -108.818 954.722 C -109.424 954.722 -110.028 954.955 -110.628 955.422 C -111.221 955.889 -111.711 956.492 -112.098 957.232 C -112.484 957.965 -112.678 958.712 -112.678 959.472 L -112.678 965.542 C -112.678 965.755 -112.748 965.932 -112.888 966.072 C -113.028 966.212 -113.204 966.282 -113.418 966.282 C -113.631 966.282 -113.808 966.212 -113.948 966.072 C -114.088 965.932 -114.158 965.755 -114.158 965.542 L -114.158 954.522 C -114.158 954.309 -114.088 954.132 -113.948 953.992 C -113.808 953.852 -113.631 953.782 -113.418 953.782 C -113.204 953.782 -113.028 953.852 -112.888 953.992 C -112.748 954.132 -112.678 954.309 -112.678 954.522 L -112.678 956.692 C -112.298 955.752 -111.728 954.975 -110.968 954.362 C -110.208 953.749 -109.311 953.432 -108.278 953.412 ZM -95.4 959.272 C -95.4 959.465 -95.473 959.632 -95.62 959.772 C -95.767 959.912 -95.94 959.982 -96.14 959.982 L -105.44 959.982 C -105.44 960.969 -105.237 961.852 -104.83 962.632 C -104.43 963.412 -103.857 964.025 -103.11 964.472 C -102.363 964.925 -101.483 965.152 -100.47 965.152 C -99.683 965.152 -98.977 964.989 -98.35 964.662 C -97.73 964.329 -97.23 963.909 -96.85 963.402 C -96.67 963.255 -96.497 963.182 -96.33 963.182 C -96.17 963.182 -96.023 963.249 -95.89 963.382 C -95.757 963.509 -95.69 963.655 -95.69 963.822 C -95.69 964.002 -95.773 964.175 -95.94 964.342 C -96.467 964.982 -97.127 965.505 -97.92 965.912 C -98.713 966.325 -99.553 966.532 -100.44 966.532 C -101.707 966.532 -102.823 966.259 -103.79 965.712 C -104.757 965.172 -105.51 964.415 -106.05 963.442 C -106.59 962.469 -106.86 961.342 -106.86 960.062 C -106.86 958.715 -106.593 957.539 -106.06 956.532 C -105.527 955.519 -104.82 954.745 -103.94 954.212 C -103.053 953.679 -102.11 953.412 -101.11 953.412 C -100.123 953.412 -99.2 953.642 -98.34 954.102 C -97.48 954.562 -96.78 955.235 -96.24 956.122 C -95.693 957.009 -95.413 958.059 -95.4 959.272 Z M -101.11 954.842 C -102.057 954.842 -102.937 955.169 -103.75 955.822 C -104.563 956.482 -105.083 957.425 -105.31 958.652 L -96.92 958.652 L -96.92 958.462 C -97.007 957.722 -97.253 957.079 -97.66 956.532 C -98.073 955.979 -98.587 955.559 -99.2 955.272 C -99.813 954.985 -100.45 954.842 -101.11 954.842 ZM -79.861 949.062 C -78.281 949.062 -76.955 949.452 -75.881 950.232 C -74.808 951.012 -74.005 952.052 -73.471 953.352 C -72.938 954.659 -72.671 956.099 -72.671 957.672 C -72.671 959.299 -72.938 960.759 -73.471 962.052 C -74.005 963.345 -74.808 964.375 -75.881 965.142 C -76.955 965.902 -78.281 966.282 -79.861 966.282 L -86.131 966.282 C -86.345 966.282 -86.521 966.212 -86.661 966.072 C -86.801 965.932 -86.871 965.755 -86.871 965.542 L -86.871 949.802 C -86.871 949.589 -86.801 949.412 -86.661 949.272 C -86.521 949.132 -86.345 949.062 -86.131 949.062 L -79.861 949.062 Z M -80.101 964.832 C -78.135 964.832 -76.668 964.172 -75.701 962.852 C -74.735 961.532 -74.251 959.805 -74.251 957.672 C -74.251 956.345 -74.455 955.145 -74.861 954.072 C -75.275 952.992 -75.918 952.129 -76.791 951.482 C -77.671 950.835 -78.775 950.512 -80.101 950.512 L -85.321 950.512 L -85.321 964.832 L -80.101 964.832 ZM -59.531 959.272 C -59.531 959.465 -59.604 959.632 -59.751 959.772 C -59.898 959.912 -60.071 959.982 -60.271 959.982 L -69.571 959.982 C -69.571 960.969 -69.368 961.852 -68.961 962.632 C -68.561 963.412 -67.988 964.025 -67.241 964.472 C -66.494 964.925 -65.614 965.152 -64.601 965.152 C -63.814 965.152 -63.108 964.989 -62.481 964.662 C -61.861 964.329 -61.361 963.909 -60.981 963.402 C -60.801 963.255 -60.628 963.182 -60.461 963.182 C -60.301 963.182 -60.154 963.249 -60.021 963.382 C -59.888 963.509 -59.821 963.655 -59.821 963.822 C -59.821 964.002 -59.904 964.175 -60.071 964.342 C -60.598 964.982 -61.258 965.505 -62.051 965.912 C -62.844 966.325 -63.684 966.532 -64.571 966.532 C -65.838 966.532 -66.954 966.259 -67.921 965.712 C -68.888 965.172 -69.641 964.415 -70.181 963.442 C -70.721 962.469 -70.991 961.342 -70.991 960.062 C -70.991 958.715 -70.724 957.539 -70.191 956.532 C -69.658 955.519 -68.951 954.745 -68.071 954.212 C -67.184 953.679 -66.241 953.412 -65.241 953.412 C -64.254 953.412 -63.331 953.642 -62.471 954.102 C -61.611 954.562 -60.911 955.235 -60.371 956.122 C -59.824 957.009 -59.544 958.059 -59.531 959.272 Z M -65.241 954.842 C -66.188 954.842 -67.068 955.169 -67.881 955.822 C -68.694 956.482 -69.214 957.425 -69.441 958.652 L -61.051 958.652 L -61.051 958.462 C -61.138 957.722 -61.384 957.079 -61.791 956.532 C -62.204 955.979 -62.718 955.559 -63.331 955.272 C -63.944 954.985 -64.581 954.842 -65.241 954.842 ZM -47.91 953.462 C -47.743 953.462 -47.586 953.522 -47.44 953.642 C -47.293 953.755 -47.22 953.902 -47.22 954.082 C -47.22 954.229 -47.253 954.369 -47.32 954.502 L -52.14 965.812 C -52.206 965.945 -52.303 966.055 -52.43 966.142 C -52.55 966.235 -52.676 966.282 -52.81 966.282 C -52.97 966.295 -53.116 966.262 -53.25 966.182 C -53.383 966.102 -53.48 965.979 -53.54 965.812 L -58.39 954.502 C -58.39 954.469 -58.403 954.419 -58.43 954.352 C -58.45 954.285 -58.46 954.219 -58.46 954.152 C -58.46 953.959 -58.396 953.792 -58.27 953.652 C -58.136 953.512 -57.946 953.442 -57.7 953.442 C -57.553 953.442 -57.42 953.485 -57.3 953.572 C -57.173 953.665 -57.076 953.785 -57.01 953.932 L -52.83 963.892 L -48.62 953.932 C -48.56 953.785 -48.466 953.665 -48.34 953.572 C -48.22 953.485 -48.076 953.449 -47.91 953.462 ZM -34.692 959.272 C -34.692 959.465 -34.766 959.632 -34.912 959.772 C -35.059 959.912 -35.232 959.982 -35.432 959.982 L -44.732 959.982 C -44.732 960.969 -44.529 961.852 -44.122 962.632 C -43.722 963.412 -43.149 964.025 -42.402 964.472 C -41.656 964.925 -40.776 965.152 -39.762 965.152 C -38.976 965.152 -38.269 964.989 -37.642 964.662 C -37.022 964.329 -36.522 963.909 -36.142 963.402 C -35.962 963.255 -35.789 963.182 -35.622 963.182 C -35.462 963.182 -35.316 963.249 -35.182 963.382 C -35.049 963.509 -34.982 963.655 -34.982 963.822 C -34.982 964.002 -35.066 964.175 -35.232 964.342 C -35.759 964.982 -36.419 965.505 -37.212 965.912 C -38.006 966.325 -38.846 966.532 -39.732 966.532 C -40.999 966.532 -42.116 966.259 -43.082 965.712 C -44.049 965.172 -44.802 964.415 -45.342 963.442 C -45.882 962.469 -46.152 961.342 -46.152 960.062 C -46.152 958.715 -45.886 957.539 -45.352 956.532 C -44.819 955.519 -44.112 954.745 -43.232 954.212 C -42.346 953.679 -41.402 953.412 -40.402 953.412 C -39.416 953.412 -38.492 953.642 -37.632 954.102 C -36.772 954.562 -36.072 955.235 -35.532 956.122 C -34.986 957.009 -34.706 958.059 -34.692 959.272 Z M -40.402 954.842 C -41.349 954.842 -42.229 955.169 -43.042 955.822 C -43.856 956.482 -44.376 957.425 -44.602 958.652 L -36.212 958.652 L -36.212 958.462 C -36.299 957.722 -36.546 957.079 -36.952 956.532 C -37.366 955.979 -37.879 955.559 -38.492 955.272 C -39.106 954.985 -39.742 954.842 -40.402 954.842 ZM -30.818 965.542 C -30.818 965.755 -30.888 965.932 -31.028 966.072 C -31.168 966.212 -31.345 966.282 -31.558 966.282 C -31.771 966.282 -31.948 966.212 -32.088 966.072 C -32.228 965.932 -32.298 965.755 -32.298 965.542 L -32.298 948.812 C -32.298 948.599 -32.228 948.425 -32.088 948.292 C -31.948 948.152 -31.771 948.082 -31.558 948.082 C -31.345 948.082 -31.168 948.152 -31.028 948.292 C -30.888 948.425 -30.818 948.599 -30.818 948.812 L -30.818 965.542 ZM -16.227 959.982 C -16.227 961.215 -16.497 962.332 -17.037 963.332 C -17.577 964.332 -18.324 965.115 -19.277 965.682 C -20.224 966.249 -21.28 966.532 -22.447 966.532 C -23.614 966.532 -24.67 966.249 -25.617 965.682 C -26.57 965.115 -27.317 964.332 -27.857 963.332 C -28.397 962.332 -28.667 961.215 -28.667 959.982 C -28.667 958.755 -28.397 957.642 -27.857 956.642 C -27.317 955.642 -26.57 954.855 -25.617 954.282 C -24.67 953.702 -23.614 953.412 -22.447 953.412 C -21.28 953.412 -20.224 953.702 -19.277 954.282 C -18.324 954.855 -17.577 955.642 -17.037 956.642 C -16.497 957.642 -16.227 958.755 -16.227 959.982 Z M -17.697 959.982 C -17.697 959.002 -17.904 958.119 -18.317 957.332 C -18.724 956.539 -19.294 955.919 -20.027 955.472 C -20.754 955.019 -21.56 954.792 -22.447 954.792 C -23.334 954.792 -24.137 955.019 -24.857 955.472 C -25.577 955.919 -26.147 956.539 -26.567 957.332 C -26.987 958.119 -27.197 959.002 -27.197 959.982 C -27.197 960.949 -26.987 961.825 -26.567 962.612 C -26.147 963.405 -25.577 964.025 -24.857 964.472 C -24.137 964.925 -23.334 965.152 -22.447 965.152 C -21.56 965.152 -20.754 964.929 -20.027 964.482 C -19.294 964.042 -18.724 963.429 -18.317 962.642 C -17.904 961.855 -17.697 960.969 -17.697 959.982 ZM -8.024 953.612 C -6.944 953.612 -5.96 953.889 -5.074 954.442 C -4.187 954.989 -3.494 955.749 -2.994 956.722 C -2.494 957.702 -2.244 958.799 -2.244 960.012 C -2.244 961.239 -2.494 962.342 -2.994 963.322 C -3.494 964.295 -4.18 965.062 -5.054 965.622 C -5.934 966.175 -6.914 966.452 -7.994 966.452 C -8.947 966.452 -9.82 966.229 -10.614 965.782 C -11.414 965.329 -12.05 964.725 -12.524 963.972 L -12.524 970.462 C -12.524 970.675 -12.594 970.852 -12.734 970.992 C -12.874 971.132 -13.05 971.202 -13.264 971.202 C -13.477 971.202 -13.654 971.132 -13.794 970.992 C -13.934 970.852 -14.004 970.675 -14.004 970.462 L -14.004 954.422 C -14.004 954.209 -13.934 954.029 -13.794 953.882 C -13.654 953.735 -13.477 953.662 -13.264 953.662 C -13.05 953.662 -12.874 953.735 -12.734 953.882 C -12.594 954.029 -12.524 954.209 -12.524 954.422 L -12.524 956.102 C -12.097 955.329 -11.484 954.722 -10.684 954.282 C -9.877 953.835 -8.99 953.612 -8.024 953.612 Z M -8.144 965.072 C -7.29 965.072 -6.524 964.855 -5.844 964.422 C -5.164 963.989 -4.63 963.385 -4.244 962.612 C -3.857 961.845 -3.664 960.979 -3.664 960.012 C -3.664 959.059 -3.857 958.202 -4.244 957.442 C -4.63 956.675 -5.164 956.075 -5.844 955.642 C -6.524 955.209 -7.29 954.992 -8.144 954.992 C -9.017 954.992 -9.797 955.205 -10.484 955.632 C -11.17 956.059 -11.704 956.652 -12.084 957.412 C -12.457 958.179 -12.644 959.045 -12.644 960.012 C -12.644 960.979 -12.457 961.845 -12.084 962.612 C -11.704 963.385 -11.17 963.989 -10.484 964.422 C -9.797 964.855 -9.017 965.072 -8.144 965.072 ZM 14.272 953.612 C 15.752 953.612 16.839 954.069 17.532 954.982 C 18.232 955.889 18.582 957.089 18.582 958.582 L 18.582 965.542 C 18.582 965.755 18.512 965.932 18.372 966.072 C 18.232 966.212 18.056 966.282 17.842 966.282 C 17.629 966.282 17.452 966.212 17.312 966.072 C 17.172 965.932 17.102 965.755 17.102 965.542 L 17.102 958.652 C 17.102 957.572 16.846 956.692 16.332 956.012 C 15.812 955.332 15.012 954.992 13.932 954.992 C 13.239 954.992 12.586 955.155 11.972 955.482 C 11.359 955.809 10.862 956.255 10.482 956.822 C 10.109 957.389 9.922 957.999 9.922 958.652 L 9.922 965.542 C 9.922 965.755 9.852 965.932 9.712 966.072 C 9.572 966.212 9.396 966.282 9.182 966.282 C 8.969 966.282 8.792 966.212 8.652 966.072 C 8.512 965.932 8.442 965.755 8.442 965.542 L 8.442 958.582 C 8.442 957.515 8.196 956.649 7.702 955.982 C 7.216 955.322 6.446 954.992 5.392 954.992 C 4.719 954.992 4.082 955.155 3.482 955.482 C 2.889 955.809 2.406 956.249 2.032 956.802 C 1.666 957.349 1.482 957.942 1.482 958.582 L 1.482 965.542 C 1.482 965.755 1.412 965.932 1.272 966.072 C 1.132 966.212 0.956 966.282 0.742 966.282 C 0.529 966.282 0.352 966.212 0.212 966.072 C 0.072 965.932 0.002 965.755 0.002 965.542 L 0.002 954.522 C 0.002 954.309 0.072 954.132 0.212 953.992 C 0.352 953.852 0.529 953.782 0.742 953.782 C 0.956 953.782 1.132 953.852 1.272 953.992 C 1.412 954.132 1.482 954.309 1.482 954.522 L 1.482 955.952 C 1.922 955.279 2.522 954.722 3.282 954.282 C 4.036 953.835 4.829 953.612 5.662 953.612 C 6.616 953.612 7.436 953.842 8.122 954.302 C 8.809 954.762 9.302 955.435 9.602 956.322 C 9.942 955.595 10.572 954.962 11.492 954.422 C 12.412 953.882 13.339 953.612 14.272 953.612 ZM 32.262 959.272 C 32.262 959.465 32.189 959.632 32.042 959.772 C 31.896 959.912 31.722 959.982 31.522 959.982 L 22.222 959.982 C 22.222 960.969 22.426 961.852 22.832 962.632 C 23.232 963.412 23.806 964.025 24.552 964.472 C 25.299 964.925 26.179 965.152 27.192 965.152 C 27.979 965.152 28.686 964.989 29.312 964.662 C 29.932 964.329 30.432 963.909 30.812 963.402 C 30.992 963.255 31.166 963.182 31.332 963.182 C 31.492 963.182 31.639 963.249 31.772 963.382 C 31.906 963.509 31.972 963.655 31.972 963.822 C 31.972 964.002 31.889 964.175 31.722 964.342 C 31.196 964.982 30.536 965.505 29.742 965.912 C 28.949 966.325 28.109 966.532 27.222 966.532 C 25.956 966.532 24.839 966.259 23.872 965.712 C 22.906 965.172 22.152 964.415 21.612 963.442 C 21.072 962.469 20.802 961.342 20.802 960.062 C 20.802 958.715 21.069 957.539 21.602 956.532 C 22.136 955.519 22.842 954.745 23.722 954.212 C 24.609 953.679 25.552 953.412 26.552 953.412 C 27.539 953.412 28.462 953.642 29.322 954.102 C 30.182 954.562 30.882 955.235 31.422 956.122 C 31.969 957.009 32.249 958.059 32.262 959.272 Z M 26.552 954.842 C 25.606 954.842 24.726 955.169 23.912 955.822 C 23.099 956.482 22.579 957.425 22.352 958.652 L 30.742 958.652 L 30.742 958.462 C 30.656 957.722 30.409 957.079 30.002 956.532 C 29.589 955.979 29.076 955.559 28.462 955.272 C 27.849 954.985 27.212 954.842 26.552 954.842 ZM 40.437 953.412 C 41.963 953.412 43.083 953.859 43.797 954.752 C 44.51 955.652 44.867 956.839 44.867 958.312 L 44.867 965.542 C 44.867 965.755 44.793 965.932 44.647 966.072 C 44.5 966.212 44.327 966.282 44.127 966.282 C 43.913 966.282 43.737 966.212 43.597 966.072 C 43.457 965.932 43.387 965.755 43.387 965.542 L 43.387 958.382 C 43.387 957.315 43.12 956.452 42.587 955.792 C 42.053 955.125 41.23 954.792 40.117 954.792 C 39.41 954.792 38.743 954.955 38.117 955.282 C 37.483 955.615 36.97 956.055 36.577 956.602 C 36.183 957.149 35.987 957.742 35.987 958.382 L 35.987 965.542 C 35.987 965.755 35.917 965.932 35.777 966.072 C 35.637 966.212 35.46 966.282 35.247 966.282 C 35.033 966.282 34.857 966.212 34.717 966.072 C 34.577 965.932 34.507 965.755 34.507 965.542 L 34.507 954.522 C 34.507 954.309 34.577 954.132 34.717 953.992 C 34.857 953.852 35.033 953.782 35.247 953.782 C 35.46 953.782 35.637 953.852 35.777 953.992 C 35.917 954.132 35.987 954.309 35.987 954.522 L 35.987 955.872 C 36.427 955.172 37.063 954.589 37.897 954.122 C 38.723 953.649 39.57 953.412 40.437 953.412 ZM 52.842 955.142 L 50.382 955.142 L 50.382 963.382 C 50.382 964.002 50.499 964.422 50.732 964.642 C 50.959 964.869 51.262 964.982 51.642 964.982 C 51.742 964.982 51.865 964.959 52.012 964.912 C 52.159 964.872 52.272 964.852 52.352 964.852 C 52.499 964.852 52.625 964.915 52.732 965.042 C 52.839 965.162 52.892 965.305 52.892 965.472 C 52.892 965.699 52.762 965.892 52.502 966.052 C 52.242 966.205 51.929 966.282 51.562 966.282 C 51.122 966.282 50.729 966.242 50.382 966.162 C 50.042 966.075 49.712 965.829 49.392 965.422 C 49.072 965.009 48.912 964.352 48.912 963.452 L 48.912 955.142 L 47.112 955.142 C 46.919 955.142 46.752 955.075 46.612 954.942 C 46.472 954.809 46.402 954.645 46.402 954.452 C 46.402 954.252 46.472 954.089 46.612 953.962 C 46.752 953.829 46.919 953.762 47.112 953.762 L 48.912 953.762 L 48.912 951.032 C 48.912 950.819 48.982 950.642 49.122 950.502 C 49.262 950.362 49.439 950.292 49.652 950.292 C 49.865 950.292 50.039 950.362 50.172 950.502 C 50.312 950.642 50.382 950.819 50.382 951.032 L 50.382 953.762 L 52.842 953.762 C 53.022 953.762 53.182 953.835 53.322 953.982 C 53.462 954.129 53.532 954.292 53.532 954.472 C 53.532 954.672 53.469 954.832 53.342 954.952 C 53.209 955.079 53.042 955.142 52.842 955.142 Z" transform="matrix(1.4687259197235107, 0, 0, 1.4687259197235107, 644.2982177734375, -1151.39892578125)" style="fill: rgb(226, 0, 92); white-space: pre;"/>
</svg>